<svg width="160" height="36" viewBox="0 0 160 36" fill="none" xmlns="http://www.w3.org/2000/svg">
  <rect width="160" height="36" rx="8" fill="#0F172A"/>
  <path d="M14 18c0-3.866 3.582-7 8-7h20c4.418 0 8 3.134 8 7s-3.582 7-8 7H22l-6 5v-5.5c-1.262-1.16-2-2.793-2-4.5Z" fill="#FDD458"/>
  <path d="M36 13c-3.866 0-7 2.91-7 6.5s3.134 6.5 7 6.5 7-2.91 7-6.5S39.866 13 36 13Zm0 9.5c-1.933 0-3.5-1.343-3.5-3s1.567-3 3.5-3 3.5 1.343 3.5 3-1.567 3-3.5 3Z" fill="#0F172A"/>
  <text x="60" y="23" fill="#E5E7EB" font-family="Inter, system-ui, -apple-system, sans-serif" font-size="16" font-weight="700">Signalist</text>
</svg>
